<svg id="Layer_5" enable-background="new 0 0 64 64" height="512" viewBox="0 0 64 64" width="512" xmlns="http://www.w3.org/2000/svg"><g><path d="m5 37.586v21.414h21.414l4.586-4.586v-21.414h-21.414zm2 15.414v-14h22v14zm18.586 4h-18.586v-2h20.586zm3.414-22v2h-20.586l2-2z"/><path d="m24 41c-3.014 0-5.582 1.919-6.566 4.596-1.284-1.582-3.242-2.596-5.434-2.596h-3v1c0 3.859 3.14 7 7 7h3v-1c0-.34-.033-.672-.08-1h1.08c3.86 0 7-3.141 7-7v-1zm-8 8c-2.415 0-4.435-1.721-4.899-4h.899c2.415 0 4.435 1.721 4.899 4zm4-2h-.899c.464-2.279 2.485-4 4.899-4h.899c-.464 2.279-2.484 4-4.899 4z"/><path d="m35 39v-9.414l-4.586-4.586h-4.414v-4h1c1.654 0 3-1.346 3-3v-2c0-1.654-1.346-3-3-3h-3v-6c0-3.309-2.691-6-6-6s-6 2.691-6 6v6h-3c-1.654 0-3 1.346-3 3v2c0 1.654 1.346 3 3 3h1v4h-4.414l-4.586 4.586v28.414c0 2.757 2.243 5 5 5h24c2.414 0 4.434-1.721 4.899-4h9.101c10.477 0 19-8.523 19-19v-1zm-21-32c0-2.206 1.794-4 4-4s4 1.794 4 4v6h-8zm-6 11v-2c0-.551.449-1 1-1h18c.551 0 1 .449 1 1v2c0 .551-.449 1-1 1h-18c-.551 0-1-.449-1-1zm4 3h12v4h-12zm-5.586 6h23.172l2 2h-27.172zm23.586 34h-24c-1.654 0-3-1.346-3-3v-27h30v27c0 1.654-1.346 3-3 3zm5-4v-8.735c1.512.498 3.099 1.091 4.648 1.672 4.017 1.505 8.17 3.063 11.352 3.063 1.291 0 2.842-.108 4.334-.36-3.011 2.703-6.979 4.36-11.334 4.36zm22.805-7.096c-1.547.668-4.167 1.096-6.805 1.096-2.104 0-4.855-.832-7.716-1.854 3.097-1.402 5.742-2.146 7.716-2.146 5.528 0 7.229.871 7.751 1.422-.292.51-.605 1.007-.946 1.482zm1.849-3.323c-1.519-1.07-4.342-1.581-8.654-1.581-2.679 0-6.159 1.077-10.335 3.181-.105-.039-.21-.078-.315-.118-1.782-.668-3.611-1.348-5.35-1.896v-5.167h25.971c-.115 1.971-.584 3.845-1.317 5.581z"/><path d="m47.88 33h.24c6.551 0 11.88-5.329 11.88-11.88 0-2.229-.625-4.406-1.806-6.296l-7.816-12.506c-.516-.825-1.404-1.318-2.378-1.318s-1.862.493-2.378 1.318l-7.816 12.506c-1.181 1.89-1.806 4.068-1.806 6.296 0 6.551 5.329 11.88 11.88 11.88zm-8.378-17.116 7.816-12.506c.148-.237.403-.378.682-.378s.534.141.682.378l7.816 12.506c.982 1.572 1.502 3.383 1.502 5.236 0 5.448-4.432 9.88-9.88 9.88h-.24c-5.448 0-9.88-4.432-9.88-9.88 0-1.853.52-3.664 1.502-5.236z"/><path d="m56 21.12c0-.43-.035-.862-.105-1.284l-1.973.327c.052.315.078.636.078.957 0 3.242-2.638 5.88-5.88 5.88h-.12v2h.12c4.345 0 7.88-3.535 7.88-7.88z"/><path d="m53.36 18.454 1.782-.908c-.104-.205-.218-.405-.34-.602l-.921-1.474-1.696 1.06.921 1.474c.091.146.176.296.254.45z"/></g></svg>